<?xml version="1.0" encoding="UTF-8"?>
<svg version="1.1" xmlns="http://www.w3.org/2000/svg" width="1500" height="1500">
<path d="M0 0 C495 0 990 0 1500 0 C1500 495 1500 990 1500 1500 C1005 1500 510 1500 0 1500 C0 1005 0 510 0 0 Z " fill="#FEFEFE" transform="translate(0,0)"/>
<path d="M0 0 C25.71784269 22.6632861 41.48361854 53.70228975 45.81298828 87.59765625 C46.05123893 92.74062144 46.05867207 97.88723404 46.06298828 103.03515625 C46.06366302 103.75518829 46.06433777 104.47522034 46.06503296 105.21707153 C46.04945373 115.66287113 45.6110864 125.45170696 42.81298828 135.59765625 C42.49135812 136.92546277 42.17110285 138.2536029 41.85205078 139.58203125 C37.5301064 156.60080808 29.56608396 172.74234005 18.81298828 186.59765625 C18.09498047 187.53609375 17.37697266 188.47453125 16.63720703 189.44140625 C-5.4736571 217.40399109 -37.9841558 236.34006306 -73.39868164 241.1940918 C-79.5213019 241.84632427 -85.5977285 241.8870697 -91.74951172 241.84765625 C-92.96058594 241.85539062 -94.17166016 241.863125 -95.41943359 241.87109375 C-103.51842848 241.85374186 -111.22722224 241.07136223 -119.18701172 239.59765625 C-119.89510986 239.47293945 -120.60320801 239.34822266 -121.33276367 239.21972656 C-138.01176341 236.0880677 -155.58826893 228.72667227 -169.18701172 218.59765625 C-170.23759766 217.82679688 -171.28818359 217.0559375 -172.37060547 216.26171875 C-183.30090579 208.11555153 -192.84155675 199.44065614 -201.18701172 188.59765625 C-201.83154297 187.80359375 -202.47607422 187.00953125 -203.14013672 186.19140625 C-213.3016059 173.13846209 -220.84724961 157.51583504 -225.18701172 141.59765625 C-225.37344238 140.92863281 -225.55987305 140.25960937 -225.75195312 139.5703125 C-231.70976809 118.00774038 -232.08688233 95.44115269 -227.18701172 73.59765625 C-226.76935547 71.67759766 -226.76935547 71.67759766 -226.34326172 69.71875 C-221.85651987 51.17226107 -212.87190258 33.60858346 -201.18701172 18.59765625 C-200.49865234 17.69273437 -199.81029297 16.7878125 -199.10107422 15.85546875 C-178.01472627 -11.01630318 -144.72708818 -29.73370654 -110.83935547 -34.0234375 C-69.82527756 -38.00955185 -31.28200092 -27.13467652 0 0 Z " fill="#FDFDFD" transform="translate(1191.18701171875,646.40234375)"/>
<path d="M0 0 C14.25203557 11.62444789 24.34907451 25.36226287 30 43 C30.3196875 43.9796875 30.639375 44.959375 30.96875 45.96875 C34.88317403 60.03168077 34.41200628 76.13879808 30 90 C29.67128906 91.1240625 29.34257813 92.248125 29.00390625 93.40625 C24.67691428 106.94120066 16.99497417 117.98698436 7 128 C6.38898438 128.62261719 5.77796875 129.24523437 5.1484375 129.88671875 C-13.91605636 147.93714379 -39.31826064 151.49990949 -64.37109375 151.29296875 C-66.38989443 151.28735966 -68.40869924 151.28309579 -70.42750549 151.28010559 C-75.68982617 151.26876006 -80.95189054 151.23938389 -86.21411133 151.20599365 C-91.60429418 151.17506838 -96.99451925 151.1615527 -102.38476562 151.14648438 C-112.92328846 151.11450236 -123.46162275 151.06343365 -134 151 C-131.2785371 148.14935561 -128.45371929 146.38578126 -125.01953125 144.42578125 C-124.44667892 144.09708542 -123.8738266 143.76838959 -123.28361511 143.42973328 C-121.46245096 142.3861375 -119.63756978 141.34924737 -117.8125 140.3125 C-116.57331608 139.60395552 -115.33438088 138.89497587 -114.09570312 138.18554688 C-111.06666642 136.45198175 -108.03426125 134.72440794 -105 133 C-106.72412089 129.20417703 -108.72409607 127.58825063 -112 125 C-130.88536545 103.68564864 -135.37266947 80.15370318 -133.796875 52.42578125 C-131.18913216 32.10239414 -118.1974821 12.85076391 -102.4375 0.375 C-92.30555141 -6.91379975 -81.23190333 -12.37182045 -69 -15 C-68.31550781 -15.20238281 -67.63101562 -15.40476562 -66.92578125 -15.61328125 C-44.24964544 -21.96259928 -18.288613 -13.61737284 0 0 Z " fill="#FDFDFD" transform="translate(1150,683)"/>
<path d="M0 0 C0.1404068 7.67611198 -0.31409244 15.23987526 -0.90234375 22.890625 C-1.72050754 34.12541841 -2.34338268 45.35514667 -2.81640625 56.609375 C-2.8633922 57.72254341 -2.8633922 57.72254341 -2.91132736 58.85820007 C-3.133749 64.15525133 -3.34859438 69.45259924 -3.5625 74.75 C-3.78040621 80.12506668 -4.00107749 85.50000466 -4.22645378 90.87476349 C-4.31382004 92.98442499 -4.39736292 95.09421295 -4.48060608 97.20404053 C-4.75690107 103.84749139 -5.15402977 110.40387122 -6 117 C-11.53934574 119.2194685 -16.98932611 119.63851476 -22.875 120.125 C-23.84953125 120.21136719 -24.8240625 120.29773438 -25.828125 120.38671875 C-28.21826446 120.59761341 -30.60877625 120.80184637 -33 121 C-32.85967508 117.81223289 -32.71173356 114.6248615 -32.5625 111.4375 C-32.52318359 110.54224609 -32.48386719 109.64699219 -32.44335938 108.72460938 C-32.20667217 103.7541781 -31.80178328 98.91176481 -31 94 C-35.62 94.33 -40.24 94.66 -45 95 C-45.42152344 96.57652344 -45.84304688 98.15304687 -46.27734375 99.77734375 C-46.83055178 101.83077696 -47.38394684 103.8841598 -47.9375 105.9375 C-48.21529297 106.97841797 -48.49308594 108.01933594 -48.77929688 109.09179688 C-49.04677734 110.08115234 -49.31425781 111.07050781 -49.58984375 112.08984375 C-49.83597412 113.00628662 -50.08210449 113.92272949 -50.33569336 114.86694336 C-51 117 -51 117 -52 118 C-53.5583116 118.29739911 -55.12749398 118.5383546 -56.69921875 118.75390625 C-58.14264648 118.95209961 -58.14264648 118.95209961 -59.61523438 119.15429688 C-60.62908203 119.28900391 -61.64292969 119.42371094 -62.6875 119.5625 C-63.68201172 119.70107422 -64.67652344 119.83964844 -65.70117188 119.98242188 C-70.49879287 120.63040395 -75.14575315 121.19020047 -80 121 C-79.67 119.35 -79.34 117.7 -79 116 C-84.34907064 116.24100847 -89.6977197 116.48964871 -95.04614258 116.74462891 C-96.85627202 116.82993551 -98.66649212 116.91334474 -100.47680664 116.99462891 C-110.90103541 117.46411044 -121.25486255 118.10111618 -131.61885071 119.34591675 C-136.44954117 119.91127732 -141.1350865 120.08175171 -146 120 C-147.30479857 108.83178458 -148.42886603 97.98109564 -141.65283203 88.4309082 C-139.15376735 85.29961795 -136.58090582 82.24925145 -133.92822266 79.24707031 C-130.86516279 75.67750801 -128.20236452 71.84514089 -125.5 68 C-124.43985391 66.52304712 -123.37733499 65.04779467 -122.3125 63.57421875 C-121.77753906 62.83349121 -121.24257813 62.09276367 -120.69140625 61.32958984 C-117.07577964 56.34975308 -113.41601675 51.40223372 -109.75585938 46.45507812 C-106.46136377 41.99918572 -103.20794581 37.51865501 -100 33 C-100.76666992 33.09087891 -101.53333984 33.18175781 -102.32324219 33.27539062 C-105.79855052 33.68598446 -109.2742654 34.09303107 -112.75 34.5 C-113.9565625 34.64308594 -115.163125 34.78617188 -116.40625 34.93359375 C-118.14648438 35.13662109 -118.14648438 35.13662109 -119.921875 35.34375 C-120.99018555 35.46943359 -122.05849609 35.59511719 -123.15917969 35.72460938 C-126 36 -126 36 -130 36 C-130.16589226 29.97258105 -129.57114133 24.42505207 -128.5 18.5 C-128.28537109 17.26636719 -128.28537109 17.26636719 -128.06640625 16.0078125 C-127.71693088 14.00415373 -127.35931844 12.00191702 -127 10 C-119.38734227 9.42407965 -111.77418136 8.85519454 -104.16064453 8.29101562 C-101.57491374 8.09859515 -98.98929878 7.90461116 -96.40380859 7.70898438 C-92.67054718 7.42679416 -88.93689444 7.15037698 -85.203125 6.875 C-84.06200256 6.78750488 -82.92088013 6.70000977 -81.74517822 6.60986328 C-74.48276055 6.08125234 -67.28088226 5.89634877 -60 6 C-60.25917944 8.31431998 -60.53208491 10.62573154 -60.8125 12.9375 C-61.03873047 14.86916016 -61.03873047 14.86916016 -61.26953125 16.83984375 C-62.49011177 24.75420529 -65.24591293 31.06001092 -69.9375 37.5 C-70.41985107 38.1815918 -70.90220215 38.86318359 -71.39916992 39.56542969 C-72.41538717 40.99943423 -73.43637049 42.43007227 -74.46191406 43.85742188 C-76.44247299 46.6163719 -78.39543971 49.39427685 -80.34936523 52.17211914 C-81.8319545 54.27762844 -83.31992426 56.37925505 -84.80859375 58.48046875 C-87.10408918 61.72502858 -89.38570736 64.97893339 -91.66015625 68.23828125 C-92.587677 69.56714355 -92.587677 69.56714355 -93.53393555 70.92285156 C-94.72534047 72.63104279 -95.91567883 74.33997861 -97.10473633 76.04980469 C-97.65540771 76.8390332 -98.2060791 77.62826172 -98.7734375 78.44140625 C-99.25216309 79.12920166 -99.73088867 79.81699707 -100.22412109 80.52563477 C-102.75957842 84.05833479 -105.39096478 87.52128637 -108 91 C-97.44 91 -86.88 91 -76 91 C-75.505 97.435 -75.505 97.435 -75 104 C-74.46632813 102.15664063 -73.93265625 100.31328125 -73.3828125 98.4140625 C-57.72740471 44.38476782 -57.72740471 44.38476782 -51.24365234 23.4140625 C-49.36411146 17.31001839 -47.64914615 11.17016987 -46 5 C-44.329375 4.81824219 -44.329375 4.81824219 -42.625 4.6328125 C-25.6452871 2.87875338 -25.6452871 2.87875338 -8.7578125 0.4453125 C-5.79740448 -0.03271372 -2.99358319 -0.07127579 0 0 Z " fill="#020202" transform="translate(622,689)"/>
<path d="M0 0 C0.77046661 -0.00045319 1.54093323 -0.00090637 2.33474731 -0.00137329 C13.91858281 0.01860842 24.85230721 0.81882944 36.08544922 3.86230469 C37.85786081 4.33693671 39.64947533 4.73822158 41.44140625 5.1328125 C76.74838054 12.97880679 108.44771736 39.22360715 127.61816406 69.13623047 C147.29566592 101.01656476 156.65197275 141.5418165 148.4375 178.75 C147.71852535 181.65724355 146.87807482 184.51237457 146 187.375 C145.76925781 188.1896875 145.53851562 189.004375 145.30078125 189.84375 C134.33809903 228.3581468 109.01039637 260.12045209 74.37890625 280.0859375 C55.17259992 290.77902822 32.36933333 298.43956154 10.22265625 298.578125 C9.49364609 298.58382507 8.76463593 298.58952515 8.01353455 298.59539795 C6.47477644 298.60479419 4.93599871 298.61136038 3.3972168 298.61523438 C1.0997155 298.62484434 -1.19685217 298.65587801 -3.49414062 298.6875 C-16.91224007 298.78450896 -29.58756698 296.8829868 -42.375 292.6875 C-43.16044189 292.43258789 -43.94588379 292.17767578 -44.75512695 291.91503906 C-65.15774185 285.09174921 -83.2099376 275.01945473 -99 260.375 C-99.60199219 259.82215332 -100.20398438 259.26930664 -100.82421875 258.69970703 C-121.24728309 239.7452084 -135.39924681 216.18195747 -143 189.375 C-143.31453125 188.323125 -143.6290625 187.27125 -143.953125 186.1875 C-150.48323675 162.62788114 -150.26722996 135.89420481 -144 112.375 C-143.7745752 111.52808594 -143.54915039 110.68117188 -143.31689453 109.80859375 C-137.98380659 90.60513247 -129.05332427 71.55606394 -116 56.375 C-115.29617188 55.54613281 -114.59234375 54.71726562 -113.8671875 53.86328125 C-111.63168206 51.31127952 -109.33418493 48.83698249 -107 46.375 C-106.10667969 45.41722656 -105.21335937 44.45945312 -104.29296875 43.47265625 C-77.28004155 15.07621857 -38.89367803 -0.0891232 0 0 Z M-26 13.375 C-27.16144531 13.59671875 -28.32289062 13.8184375 -29.51953125 14.046875 C-45.77515864 17.53845859 -62.63111335 24.43348716 -76 34.375 C-77.01578125 35.11105469 -78.0315625 35.84710937 -79.078125 36.60546875 C-110.90336569 60.08590988 -129.78629377 92.39091951 -136 131.375 C-136.18820312 132.29410156 -136.37640625 133.21320313 -136.5703125 134.16015625 C-138.34584838 147.44439286 -137.86996675 162.31315132 -135 175.375 C-134.83290527 176.14924316 -134.66581055 176.92348633 -134.49365234 177.72119141 C-129.87151181 198.43261501 -121.42534063 217.84958071 -108 234.375 C-107.54544434 234.95008301 -107.09088867 235.52516602 -106.62255859 236.11767578 C-85.11538608 263.20269476 -52.53219365 282.48168041 -18 286.93359375 C20.94565239 290.98364853 58.2746465 281.20327017 88.9375 256.66186523 C116.8466111 233.66137189 134.43279207 201.28382805 139 165.375 C139.23825065 160.23203481 139.24568379 155.08542221 139.25 149.9375 C139.25067474 149.21746796 139.25134949 148.49743591 139.25204468 147.75558472 C139.23646545 137.30978512 138.79809812 127.52094929 136 117.375 C135.67836984 116.04719348 135.35811456 114.71905335 135.0390625 113.390625 C130.71711812 96.37184817 122.75309568 80.2303162 112 66.375 C111.28199219 65.4365625 110.56398438 64.498125 109.82421875 63.53125 C88.94160704 37.12197906 57.24188182 17.05293182 23.52514648 12.25 C7.41251131 10.37656541 -10.13074432 9.80701049 -26 13.375 Z " fill="#050505" transform="translate(1098,600.625)"/>
<path d="M0 0 C0.29337489 11.75129425 -0.49934884 23.45293166 -1.16802979 35.17941284 C-2.44950398 57.67398985 -3.53295874 80.16864114 -4.35302734 102.68481445 C-4.38986633 103.64882172 -4.42670532 104.61282898 -4.46466064 105.60604858 C-4.53333564 107.40336162 -4.59812678 109.20082874 -4.65838623 110.9984436 C-4.88718871 116.88718871 -4.88718871 116.88718871 -6 118 C-7.99340319 118.36969114 -9.99726328 118.68332633 -12.00390625 118.97265625 C-13.6446814 119.21254272 -13.6446814 119.21254272 -15.31860352 119.45727539 C-16.71908936 119.65699951 -18.1195752 119.85672363 -19.5625 120.0625 C-23.996875 120.701875 -28.43125 121.34125 -33 122 C-32.01 112.76 -31.02 103.52 -30 94 C-34.95 94 -39.9 94 -45 94 C-45.268125 95.423125 -45.53625 96.84625 -45.8125 98.3125 C-47.14216073 104.97979882 -48.8497729 111.5493187 -51 118 C-54.91615756 118.50404219 -58.8330023 119.00253233 -62.75 119.5 C-63.86117187 119.64308594 -64.97234375 119.78617188 -66.1171875 119.93359375 C-67.18710937 120.06894531 -68.25703125 120.20429687 -69.359375 120.34375 C-70.83615723 120.53227539 -70.83615723 120.53227539 -72.34277344 120.72460938 C-75 121 -75 121 -79 121 C-79 120.01 -79 119.02 -79 118 C-94.13662929 117.56934774 -108.18159921 119.02219332 -123 122 C-122.38052059 113.05839908 -121.28928699 104.23317433 -119.9375 95.375 C-119.8325119 94.68135345 -119.7275238 93.98770691 -119.61935425 93.27304077 C-116.77025203 74.57881613 -113.13740251 56.02956872 -109.48681641 37.47839355 C-109.01216253 35.06191971 -108.54062896 32.64486049 -108.0703125 30.22753906 C-107.36847933 26.62096753 -106.66235928 23.01527277 -105.9513855 19.41049194 C-105.57089867 17.48011023 -105.19277124 15.54926394 -104.81469727 13.6184082 C-104.58838623 12.48491943 -104.3620752 11.35143066 -104.12890625 10.18359375 C-103.93369385 9.19931396 -103.73848145 8.21503418 -103.53735352 7.20092773 C-103 5 -103 5 -102 4 C-100.35672256 3.70212324 -98.70299668 3.46138957 -97.046875 3.24609375 C-96.03496094 3.11396484 -95.02304687 2.98183594 -93.98046875 2.84570312 C-92.91441406 2.71099609 -91.84835937 2.57628906 -90.75 2.4375 C-89.69941406 2.29892578 -88.64882813 2.16035156 -87.56640625 2.01757812 C-83.00750824 1.43110392 -78.60319784 0.91716744 -74 1 C-74.7639006 7.27367829 -76.15347387 13.35159676 -77.58203125 19.50390625 C-78.10753029 21.79619911 -78.63291709 24.0885177 -79.15820312 26.38085938 C-79.97905562 29.94793381 -80.80143183 33.51464419 -81.6262207 37.08081055 C-84.78646235 50.764973 -87.75610504 64.4322224 -90.1472168 78.27319336 C-90.82219369 82.14321589 -91.6311722 85.96661707 -92.5259552 89.79151917 C-93.10937088 92.50953725 -93.54298276 95.25789653 -94 98 C-88.39 98 -82.78 98 -77 98 C-76.34 100.31 -75.68 102.62 -75 105 C-74.64808594 103.8032666 -74.29617188 102.6065332 -73.93359375 101.37353516 C-62.03578462 60.93017163 -62.03578462 60.93017163 -56.8359375 44.18066406 C-54.17204556 35.59416622 -51.57880351 26.98735037 -49 18.375 C-48.79773804 17.69955139 -48.59547607 17.02410278 -48.38708496 16.32818604 C-47.25678038 12.55250502 -46.12780891 8.77642718 -45 5 C-38.91293026 4.28646395 -32.82568876 3.57441828 -26.73828125 2.86376953 C-24.66629288 2.62166926 -22.59435253 2.37915764 -20.52246094 2.13623047 C-17.54895272 1.78766132 -14.57527645 1.44055898 -11.6015625 1.09375 C-10.20618759 0.92969666 -10.20618759 0.92969666 -8.78262329 0.7623291 C-7.49151138 0.61217346 -7.49151138 0.61217346 -6.17431641 0.45898438 C-5.41486725 0.37015991 -4.65541809 0.28133545 -3.87295532 0.18981934 C-2 0 -2 0 0 0 Z " fill="#020202" transform="translate(375,689)"/>
<path d="M0 0 C-1.18448314 9.07028996 -2.74341542 17.95305261 -4.75 26.875 C-7.0014906 37.13702796 -9.08522962 47.42035096 -11 57.75 C-11.12205811 58.40814697 -11.24411621 59.06629395 -11.36987305 59.74438477 C-11.99297364 63.10879938 -12.61331218 66.47371616 -13.23242188 69.83886719 C-14.42655031 76.3228694 -15.64250904 82.80279487 -16.85791016 89.28283691 C-17.23815074 91.31177318 -17.61724661 93.34092033 -17.99609375 95.37011719 C-19.28471704 102.2564204 -20.60177127 109.1350575 -22 116 C-25.18690233 116.33921452 -28.37460104 116.67029417 -31.5625 117 C-32.45775391 117.09539062 -33.35300781 117.19078125 -34.27539062 117.2890625 C-39.21490788 117.79567965 -44.03488014 118.10897382 -49 118 C-48.67 116.35 -48.34 114.7 -48 113 C-62.48289972 113.38667173 -76.9285212 113.87459863 -91.375 115 C-92.44218262 115.0829834 -93.50936523 115.1659668 -94.60888672 115.25146484 C-98.67580169 115.58400456 -102.69045463 115.95327617 -106.7265625 116.5625 C-110.54097144 117.07230167 -114.15446421 117.06746554 -118 117 C-119.30479857 105.83178458 -120.42886603 94.98109564 -113.65283203 85.4309082 C-111.15376735 82.29961795 -108.58090582 79.24925145 -105.92822266 76.24707031 C-102.86516279 72.67750801 -100.20236452 68.84514089 -97.5 65 C-96.43985391 63.52304712 -95.37733499 62.04779467 -94.3125 60.57421875 C-93.77753906 59.83349121 -93.24257813 59.09276367 -92.69140625 58.32958984 C-89.07577964 53.34975308 -85.41601675 48.40223372 -81.75585938 43.45507812 C-78.46136377 38.99918572 -75.20794581 34.51865501 -72 30 C-72.76666992 30.09087891 -73.53333984 30.18175781 -74.32324219 30.27539062 C-77.79855052 30.68598446 -81.2742654 31.09303107 -84.75 31.5 C-85.9565625 31.64308594 -87.163125 31.78617188 -88.40625 31.93359375 C-90.14648438 32.13662109 -90.14648438 32.13662109 -91.921875 32.34375 C-92.99018555 32.46943359 -94.05849609 32.59511719 -95.15917969 32.72460938 C-98 33 -98 33 -102 33 C-101.69083423 29.79133632 -101.37706711 26.58313829 -101.0625 23.375 C-100.97548828 22.47136719 -100.88847656 21.56773437 -100.79882812 20.63671875 C-100.71181641 19.75371094 -100.62480469 18.87070312 -100.53515625 17.9609375 C-100.456604 17.15446777 -100.37805176 16.34799805 -100.29711914 15.51708984 C-99.95977108 12.65919462 -99.49171871 9.83503755 -99 7 C-91.38734227 6.42407965 -83.77418136 5.85519454 -76.16064453 5.29101562 C-73.57491374 5.09859515 -70.98929878 4.90461116 -68.40380859 4.70898438 C-64.67054718 4.42679416 -60.93689444 4.15037698 -57.203125 3.875 C-56.06200256 3.78750488 -54.92088013 3.70000977 -53.74517822 3.60986328 C-46.48276055 3.08125234 -39.28088226 2.89634877 -32 3 C-32.79455137 18.65733583 -36.65060748 28.45278311 -46.265625 40.75634766 C-48.94975576 44.22863956 -51.43184877 47.83559994 -53.9375 51.4375 C-54.9166858 52.82122127 -55.89717532 54.2040208 -56.87890625 55.5859375 C-59.14963918 58.79055963 -61.40477304 62.00565294 -63.65234375 65.2265625 C-64.5815564 66.55796265 -64.5815564 66.55796265 -65.52954102 67.91625977 C-66.72253586 69.62691873 -67.91450198 71.33829577 -69.10522461 73.05053711 C-69.65573486 73.83952393 -70.20624512 74.62851074 -70.7734375 75.44140625 C-71.25216309 76.12920166 -71.73088867 76.81699707 -72.22412109 77.52563477 C-74.75957842 81.05833479 -77.39096478 84.52128637 -80 88 C-69.44 88 -58.88 88 -48 88 C-47.67 94.27 -47.34 100.54 -47 107 C-42.3077993 87.67590716 -38.26571056 68.331322 -34.69970703 48.77099609 C-33.43931872 41.9782683 -32.06430298 35.20903273 -30.69189453 28.43823242 C-29.23073108 21.21345749 -27.867646 13.97605425 -26.578125 6.71875 C-26 4 -26 4 -25 3 C-23.57629039 2.70392044 -22.14112217 2.462372 -20.703125 2.24609375 C-19.8265625 2.11396484 -18.95 1.98183594 -18.046875 1.84570312 C-17.12390625 1.71099609 -16.2009375 1.57628906 -15.25 1.4375 C-14.3425 1.29892578 -13.435 1.16035156 -12.5 1.01757812 C-8.28222543 0.39169491 -4.27268741 -0.07545061 0 0 Z " fill="#020202" transform="translate(490,692)"/>
<path d="M0 0 C-0.68698641 4.41754615 -1.60101841 8.73357715 -2.63671875 13.08203125 C-2.96753593 14.48529721 -3.29774995 15.88870546 -3.62744141 17.29223633 C-3.80027649 18.02745514 -3.97311157 18.76267395 -4.15118408 19.52017212 C-10.37356927 46.11596494 -14.94934063 72.91231524 -19.08447266 99.90356445 C-19.26614738 101.08220314 -19.26614738 101.08220314 -19.45149231 102.28465271 C-19.67835473 103.75903547 -19.90300048 105.23376164 -20.12504578 106.70887756 C-20.56835811 109.58727836 -21.0765843 112.22975291 -22 115 C-25.74097022 116.24699007 -29.47726432 116.61807912 -33.375 117.0625 C-34.50808594 117.19881836 -34.50808594 117.19881836 -35.6640625 117.33789062 C-39.46462728 117.7797395 -43.16605892 118.11455999 -47 118 C-46.30289096 110.28876915 -44.91916795 102.74083504 -43.47094727 95.14355469 C-43.06349894 93.00524249 -42.66121813 90.86600763 -42.25976562 88.7265625 C-40.95224335 81.79098328 -39.58892952 74.87768526 -38 68 C-45.92 68.495 -45.92 68.495 -54 69 C-54.11601563 70.55847656 -54.23203125 72.11695313 -54.3515625 73.72265625 C-54.92977568 80.06169859 -56.08566632 86.20955786 -57.375 92.4375 C-57.58382812 93.47970703 -57.79265625 94.52191406 -58.0078125 95.59570312 C-58.43240185 97.68369891 -58.8707347 99.76895042 -59.32324219 101.85107422 C-59.78998216 104.02279578 -60.2208307 106.2024353 -60.62207031 108.38720703 C-61.23268872 111.38352855 -61.8648539 114.16051691 -63 117 C-65.67578125 118.6484375 -65.67578125 118.6484375 -69 119 C-70.32883433 119.27428374 -71.65560621 119.55869482 -72.98046875 119.8515625 C-74.38199638 120.11377534 -75.78436478 120.37153041 -77.1875 120.625 C-78.25387695 120.82609375 -78.25387695 120.82609375 -79.34179688 121.03125 C-82.27304766 121.57172521 -85.01273112 122 -88 122 C-87.18203089 114.80720637 -85.98257521 107.69473771 -84.75 100.5625 C-84.53110107 99.29148437 -84.31220215 98.02046875 -84.08666992 96.7109375 C-82.44542491 87.29558971 -80.649423 77.91755023 -78.70019531 68.56079102 C-77.45105835 62.51203755 -76.43204402 56.46048087 -75.52026367 50.35205078 C-74.6290456 44.60994652 -73.55003279 38.90227673 -72.5 33.1875 C-70.67719646 23.1491033 -69.05589976 13.14924541 -68 3 C-58.97525357 2.1604887 -50.06058395 1.90157436 -41 2 C-43.00557836 13.05346108 -45.25503798 24.03309289 -47.6875 35 C-48.01129628 36.46869963 -48.33486482 37.93744948 -48.65820312 39.40625 C-49.43578438 42.93817916 -50.21796171 46.46904356 -51 50 C-45.72 49.01 -40.44 48.02 -35 47 C-34.60167969 44.67324219 -34.20335937 42.34648438 -33.79296875 39.94921875 C-33.39702606 37.65854945 -32.99925645 35.36820426 -32.60131836 33.07788086 C-32.32890573 31.5043162 -32.0583484 29.93042905 -31.78979492 28.35620117 C-30.26687931 19.43707714 -28.6445674 10.67166583 -26 2 C-22.60454455 1.66274171 -19.2085816 1.33088879 -15.8125 1 C-14.85279297 0.90460937 -13.89308594 0.80921875 -12.90429688 0.7109375 C-11.97294922 0.62070312 -11.04160156 0.53046875 -10.08203125 0.4375 C-9.22843018 0.35371094 -8.3748291 0.26992188 -7.49536133 0.18359375 C-4.98711079 -0.00094831 -2.51404403 -0.03149938 0 0 Z " fill="#020202" transform="translate(891,689)"/>
<path d="M0 0 C1.19367187 -0.02578125 2.38734375 -0.0515625 3.6171875 -0.078125 C8.26604473 0.3567347 11.48300455 1.76939727 14.953125 4.8984375 C15.42234375 5.46820312 15.8915625 6.03796875 16.375 6.625 C16.85453125 7.18960938 17.3340625 7.75421875 17.828125 8.3359375 C20.78516372 12.70024163 21.36482886 16.33778667 21.25 21.5625 C21.23195313 22.63113281 21.21390625 23.69976563 21.1953125 24.80078125 C21.17210937 25.60902344 21.14890625 26.41726563 21.125 27.25 C18.39818889 28.09179395 15.66898557 28.92363069 12.9375 29.75 C12.16857422 29.98847656 11.39964844 30.22695313 10.60742188 30.47265625 C2.96037835 32.7700513 2.96037835 32.7700513 -0.875 32.25 C-1.535 31.59 -2.195 30.93 -2.875 30.25 C-6.2622476 29.8609438 -6.2622476 29.8609438 -9.875 31.25 C-12.46741395 33.90787895 -14.11561057 36.9998302 -15.875 40.25 C-16.74318359 41.80847656 -16.74318359 41.80847656 -17.62890625 43.3984375 C-22.21459356 52.05478893 -25.2169155 60.84217285 -27.875 70.25 C-28.24496094 71.43078125 -28.61492188 72.6115625 -28.99609375 73.828125 C-29.86525969 77.21207774 -30.1427065 80.0787452 -30.125 83.5625 C-30.13015625 84.58988281 -30.1353125 85.61726562 -30.140625 86.67578125 C-30.13159966 89.41392935 -30.13159966 89.41392935 -27.875 91.25 C-25.00262267 91.83442963 -25.00262267 91.83442963 -21.875 91.25 C-17.30007647 87.54649047 -13.74261341 82.85284023 -11.875 77.25 C-7.46541892 77.91607439 -3.60927814 79.51624729 0.4375 81.3125 C1.08267578 81.59416016 1.72785156 81.87582031 2.39257812 82.16601562 C3.97198358 82.8562743 5.54876493 83.55253198 7.125 84.25 C2.53887698 99.32827764 -7.19370016 110.80356839 -20.87109375 118.3515625 C-27.12113357 121.1322455 -34.72618914 121.68612684 -41.2109375 119.44140625 C-48.6534052 115.32095958 -52.75688547 107.87953128 -55.27075195 99.98925781 C-56.52351131 94.31008206 -56.35847116 88.5398318 -56.3125 82.75 C-56.30912628 82.08392731 -56.30575256 81.41785461 -56.30227661 80.7315979 C-56.22431031 70.10952611 -55.45898519 60.28768245 -51.875 50.25 C-51.62298828 49.53569824 -51.37097656 48.82139648 -51.11132812 48.08544922 C-44.73427955 30.50268758 -34.5509861 13.00156754 -17.44921875 3.96875 C-11.47670831 1.23175667 -6.61662989 0.08537587 0 0 Z " fill="#020202" transform="translate(795.875,690.75)"/>
<path d="M0 0 C-0.28577068 2.02167552 -0.57891787 4.04230888 -0.875 6.0625 C-1.03742188 7.18785156 -1.19984375 8.31320312 -1.3671875 9.47265625 C-2.00592141 13.0330064 -3.00628108 16.52198376 -4 20 C-12.25 20 -20.5 20 -29 20 C-29.33 23.63 -29.66 27.26 -30 31 C-30.63351812 34.26427207 -31.29462081 37.45955768 -32.0625 40.6875 C-33.0215625 44.8021875 -33.0215625 44.8021875 -34 49 C-26.74 49 -19.48 49 -12 49 C-12.47385144 55.09237561 -12.99460725 60.9676435 -14 67 C-21.59 67 -29.18 67 -37 67 C-37.33 70.63 -37.66 74.26 -38 78 C-38.28410801 79.82311056 -38.59682135 81.64278647 -38.97265625 83.44921875 C-39.23852539 84.74956055 -39.23852539 84.74956055 -39.50976562 86.07617188 C-39.69216797 86.93791016 -39.87457031 87.79964844 -40.0625 88.6875 C-40.24876953 89.59177734 -40.43503906 90.49605469 -40.62695312 91.42773438 C-41.07925698 93.61966845 -41.536964 95.81031275 -42 98 C-41.45061768 97.87882813 -40.90123535 97.75765625 -40.33520508 97.6328125 C-37.82878018 97.08316951 -35.32069174 96.54152061 -32.8125 96 C-31.94818359 95.80921875 -31.08386719 95.6184375 -30.19335938 95.421875 C-28.93168945 95.15117188 -28.93168945 95.15117188 -27.64453125 94.875 C-26.87471924 94.70742188 -26.10490723 94.53984375 -25.31176758 94.3671875 C-22.83939753 93.97449085 -20.49924191 93.93814715 -18 94 C-18.14129287 96.41700987 -18.28786487 98.83350429 -18.4375 101.25 C-18.47681641 101.93191406 -18.51613281 102.61382813 -18.55664062 103.31640625 C-18.7678117 106.66265563 -19.12338032 109.76804986 -20 113 C-20.54679413 113.08547592 -21.09358826 113.17095184 -21.6569519 113.25901794 C-27.33492272 114.14727679 -33.01215064 115.04017071 -38.68896484 115.93579102 C-40.80921942 116.26967019 -42.92966214 116.60235685 -45.05029297 116.93383789 C-48.09392444 117.4098055 -51.13685917 117.89002195 -54.1796875 118.37109375 C-55.13181122 118.51904892 -56.08393494 118.66700409 -57.06491089 118.81944275 C-57.94567291 118.95951248 -58.82643494 119.09958221 -59.73388672 119.24389648 C-60.51110077 119.36603012 -61.28831482 119.48816376 -62.08908081 119.61399841 C-64.07468326 119.9284815 -64.07468326 119.9284815 -66 121 C-68.3329866 121.04022391 -70.66706666 121.04320247 -73 121 C-72.3361022 115.18425529 -71.38308145 109.49098333 -70.25 103.75 C-68.58149089 95.16012435 -67.01988436 86.55484741 -65.5 77.9375 C-63.94797566 69.15996627 -62.31417315 60.40979528 -60.52392578 51.67797852 C-58.77990862 43.08522529 -57.26663461 34.45174454 -55.75 25.81640625 C-52.40480324 6.80960648 -52.40480324 6.80960648 -51 4 C-48.62286165 3.5501867 -46.33911774 3.23958873 -43.9375 3 C-43.19814209 2.92023926 -42.45878418 2.84047852 -41.69702148 2.75830078 C-34.99292117 2.0563509 -28.27783113 1.45817212 -21.5625 0.875 C-20.56919678 0.78734375 -19.57589355 0.6996875 -18.55249023 0.609375 C-12.3525183 0.09577399 -6.22041204 -0.1074396 0 0 Z " fill="#020202" transform="translate(751,690)"/>
<path d="M0 0 C14.25203557 11.62444789 24.34907451 25.36226287 30 43 C30.3196875 43.9796875 30.639375 44.959375 30.96875 45.96875 C34.88317403 60.03168077 34.41200628 76.13879808 30 90 C29.67128906 91.1240625 29.34257813 92.248125 29.00390625 93.40625 C24.67691428 106.94120066 16.99497417 117.98698436 7 128 C6.38898438 128.62261719 5.77796875 129.24523437 5.1484375 129.88671875 C-13.91605636 147.93714379 -39.31826064 151.49990949 -64.37109375 151.29296875 C-66.38989443 151.28735966 -68.40869924 151.28309579 -70.42750549 151.28010559 C-75.68982617 151.26876006 -80.95189054 151.23938389 -86.21411133 151.20599365 C-91.60429418 151.17506838 -96.99451925 151.1615527 -102.38476562 151.14648438 C-112.92328846 151.11450236 -123.46162275 151.06343365 -134 151 C-131.2785371 148.14935561 -128.45371929 146.38578126 -125.01953125 144.42578125 C-124.44667892 144.09708542 -123.8738266 143.76838959 -123.28361511 143.42973328 C-121.46245096 142.3861375 -119.63756978 141.34924737 -117.8125 140.3125 C-116.57331608 139.60395552 -115.33438088 138.89497587 -114.09570312 138.18554688 C-111.06666642 136.45198175 -108.03426125 134.72440794 -105 133 C-106.72412089 129.20417703 -108.72409607 127.58825063 -112 125 C-130.88536545 103.68564864 -135.37266947 80.15370318 -133.796875 52.42578125 C-131.18913216 32.10239414 -118.1974821 12.85076391 -102.4375 0.375 C-92.30555141 -6.91379975 -81.23190333 -12.37182045 -69 -15 C-68.31550781 -15.20238281 -67.63101562 -15.40476562 -66.92578125 -15.61328125 C-44.24964544 -21.96259928 -18.288613 -13.61737284 0 0 Z M-103 11 C-103.91458984 11.77537109 -103.91458984 11.77537109 -104.84765625 12.56640625 C-117.11879619 23.71944688 -126.23164764 42.66492397 -127.11669922 59.17724609 C-127.52813278 69.48764834 -127.43240452 79.15768343 -124 89 C-123.64808594 90.06476563 -123.29617188 91.12953125 -122.93359375 92.2265625 C-117.47827442 107.60228101 -108.09944724 119.47359487 -95.1640625 129.30859375 C-93.28833271 130.77464249 -91.63508986 132.27524392 -90 134 C-90.71542969 134.26683594 -91.43085937 134.53367187 -92.16796875 134.80859375 C-95.05502167 136.02314705 -97.63181764 137.44614782 -100.3125 139.0625 C-101.19550781 139.58972656 -102.07851562 140.11695313 -102.98828125 140.66015625 C-103.65214844 141.10230469 -104.31601563 141.54445313 -105 142 C-105 142.33 -105 142.66 -105 143 C-96.94909776 143.09359602 -88.89843115 143.16421079 -80.84711552 143.20724869 C-77.10661869 143.22792785 -73.36649999 143.25587369 -69.6262207 143.30175781 C-43.85649854 143.60931731 -21.61444851 142.58170658 -1 125 C-0.19433594 124.39285156 0.61132812 123.78570313 1.44140625 123.16015625 C10.4680202 115.53921348 16.395511 104.68681135 21 94 C21.43441406 93.06800781 21.86882812 92.13601563 22.31640625 91.17578125 C25.36069544 83.40064545 25.37986754 75.70691799 25.4375 67.4375 C25.44773193 66.30159424 25.45796387 65.16568848 25.46850586 63.99536133 C25.35658919 53.17857564 23.28818607 43.41033696 18.25 33.8125 C17.90219482 33.13396973 17.55438965 32.45543945 17.19604492 31.75634766 C14.34710581 26.34575741 11.00353444 21.62408228 7 17 C6.278125 16.01 5.55625 15.02 4.8125 14 C-4.87849998 2.64139288 -20.60952421 -5.07693461 -35 -8 C-35.88945313 -8.18175781 -36.77890625 -8.36351562 -37.6953125 -8.55078125 C-62.4879837 -11.92094341 -84.36197013 -5.72292955 -103 11 Z " fill="#090909" transform="translate(1150,683)"/>
<path d="M0 0 C-1.01286765 20.01286765 -1.01286765 20.01286765 -5 24 C-7.34987262 24.23527773 -9.70556039 24.41386417 -12.0625 24.5625 C-13.35285156 24.64628906 -14.64320313 24.73007812 -15.97265625 24.81640625 C-16.97167969 24.87699219 -17.97070312 24.93757812 -19 25 C-19.05088776 25.60943954 -19.10177551 26.21887909 -19.15420532 26.8467865 C-19.70230028 32.88998403 -20.62946993 38.74846176 -21.8359375 44.69140625 C-24.0702608 56.06263657 -25.87543624 67.48326444 -27.625 78.9375 C-27.92676416 80.89132536 -28.22884682 82.84510156 -28.53125 84.79882812 C-29.96041985 94.06163643 -31.35808575 103.3231272 -32.58349609 112.61547852 C-33 115 -33 115 -34 116 C-35.71503925 116.36849763 -37.44183483 116.68263704 -39.171875 116.97265625 C-40.22890625 117.14990234 -41.2859375 117.32714844 -42.375 117.50976562 C-44.045625 117.78336914 -44.045625 117.78336914 -45.75 118.0625 C-46.84828125 118.24876953 -47.9465625 118.43503906 -49.078125 118.62695312 C-50.1403125 118.80291016 -51.2025 118.97886719 -52.296875 119.16015625 C-53.26979492 119.32136963 -54.24271484 119.48258301 -55.24511719 119.64868164 C-57.86642724 119.98296604 -60.36118549 120.0646179 -63 120 C-61.50671227 109.53191392 -59.54463865 99.18387093 -57.5 88.8125 C-57.18856754 87.22205112 -56.8773685 85.63155651 -56.56640625 84.04101562 C-55.35970317 77.87620943 -54.14648113 71.71284688 -52.90625 65.5546875 C-50.14242397 51.77231036 -47.65286469 37.96235701 -46 24 C-47.37285156 24.01740234 -47.37285156 24.01740234 -48.7734375 24.03515625 C-50.55621094 24.04869141 -50.55621094 24.04869141 -52.375 24.0625 C-53.55835938 24.07410156 -54.74171875 24.08570313 -55.9609375 24.09765625 C-59 24 -59 24 -61 23 C-61 16.07 -61 9.14 -61 2 C-57.71160156 1.93941406 -54.42320312 1.87882813 -51.03515625 1.81640625 C-47.82802326 1.75448618 -44.62092106 1.69115282 -41.41381836 1.62768555 C-39.19574763 1.58454248 -36.97764808 1.54285415 -34.75952148 1.50268555 C-31.55964498 1.44447984 -28.35991078 1.38093389 -25.16015625 1.31640625 C-23.68773216 1.29133751 -23.68773216 1.29133751 -22.18556213 1.26576233 C-17.03656313 1.15654356 -11.98556473 0.86599506 -6.87547302 0.21372986 C-4.57545306 -0.04838159 -2.31229877 -0.07459028 0 0 Z " fill="#020202" transform="translate(695,691)"/>
<path d="M0 0 C4.62 0 9.24 0 14 0 C18.786446 16.13770133 18.786446 16.13770133 20.8125 23.375 C21.04582031 24.20773437 21.27914063 25.04046875 21.51953125 25.8984375 C22 28 22 28 22 31 C35.86 31 49.72 31 64 31 C64.99 27.04 65.98 23.08 67 19 C68.32 15.37 69.64 11.74 71 8 C53.84 8 36.68 8 19 8 C19 6.68 19 5.36 19 4 C37.48 4 55.96 4 75 4 C75.98781642 8.93908208 75.94939971 10.14508342 74.41796875 14.6328125 C73.88526367 16.21255859 73.88526367 16.21255859 73.34179688 17.82421875 C72.96087891 18.91347656 72.57996094 20.00273438 72.1875 21.125 C71.81818359 22.22199219 71.44886719 23.31898438 71.06835938 24.44921875 C68.3003658 32.54945131 68.3003658 32.54945131 66 36 C64.16500854 36.36076355 64.16500854 36.36076355 61.91748047 36.34057617 C61.07675995 36.34034958 60.23603943 36.34012299 59.36984253 36.33988953 C58.46146637 36.32440567 57.55309021 36.30892181 56.6171875 36.29296875 C55.68778351 36.28872391 54.75837952 36.28447906 53.80081177 36.28010559 C50.82524944 36.26328012 47.85035844 36.22562103 44.875 36.1875 C42.86068685 36.17245816 40.84636311 36.15876888 38.83203125 36.14648438 C33.88776121 36.11336394 28.94399451 36.06155529 24 36 C24.33 37.98 24.66 39.96 25 42 C26.12494873 41.97381592 27.24989746 41.94763184 28.40893555 41.9206543 C32.59265157 41.82998255 36.77628121 41.77268963 40.96069336 41.7253418 C42.76976132 41.7002361 44.57872822 41.66614405 46.38745117 41.62280273 C48.99162751 41.56197421 51.59446031 41.53375191 54.19921875 41.51171875 C55.00461594 41.48591232 55.81001312 41.4601059 56.63981628 41.43351746 C61.05194714 41.43132619 62.51101972 41.59431036 66.05004883 44.53051758 C66.69353271 45.34544678 67.3370166 46.16037598 68 47 C67.67 47.99 67.34 48.98 67 50 C66.01 50 65.02 50 64 50 C63.34 49.01 62.68 48.02 62 47 C59.14306126 46.71140297 56.49107492 46.60713054 53.6328125 46.62890625 C51.92577927 46.61152131 50.21874806 46.59393696 48.51171875 46.57617188 C45.81685633 46.56609992 43.12212655 46.56250182 40.42724609 46.56420898 C37.82869763 46.5606389 35.23117802 46.53329213 32.6328125 46.50390625 C31.82852814 46.51208878 31.02424377 46.5202713 30.19558716 46.52870178 C26.77979219 46.48324027 24.47198659 46.31334971 21.59204102 44.40136719 C19.5760587 41.36054492 18.77855391 38.61563064 17.89453125 35.07421875 C17.72499435 34.40840286 17.55545746 33.74258698 17.38078308 33.05659485 C17.02575022 31.65207026 16.6773449 30.24585561 16.33520508 28.83813477 C15.815921 26.70157549 15.27811249 24.57040597 14.73632812 22.43945312 C13.19834746 16.311211 11.81032232 10.26780039 11 4 C7.7 4 4.4 4 1 4 C0.67 2.68 0.34 1.36 0 0 Z " fill="#101010" transform="translate(1057,722)"/>
<path d="M0 0 C0.66 0 1.32 0 2 0 C2.33450392 12.10834493 1.28884029 23.90868439 0 35.9375 C-0.19341005 37.79615107 -0.38612278 39.65487484 -0.578125 41.51367188 C-1.04407063 46.0099909 -1.51936464 50.50522851 -2 55 C-5.96 55 -9.92 55 -14 55 C-10.72628107 40.16313201 -7.45338257 25.33060501 -3.625 10.625 C-3.37476074 9.65812256 -3.12452148 8.69124512 -2.86669922 7.69506836 C-1.12991052 1.12991052 -1.12991052 1.12991052 0 0 Z " fill="#F2F2F2" transform="translate(595,711)"/>
<path d="M0 0 C0.99 0 1.98 0 3 0 C2.38678357 18.39649282 0.70544999 36.67964874 -1 55 C-4.96 55 -8.92 55 -13 55 C-11.50250348 46.31896818 -9.63566701 37.76316811 -7.625 29.1875 C-7.33367187 27.92357422 -7.04234375 26.65964844 -6.7421875 25.35742188 C-4.74870251 16.8195355 -2.48502218 8.40541303 0 0 Z " fill="#F3F3F3" transform="translate(348,711)"/>
<path d="M0 0 C2.66589042 0.54323805 3.75768995 0.96351964 5.875 2.75 C7.21538506 5.84964046 7.42167869 7.71409302 6.875 11.0625 C4.41905875 14.38524404 2.9493356 15.83868008 -1.125 16.6875 C-5.1993356 15.83868008 -6.66905875 14.38524404 -9.125 11.0625 C-9.75 8.0625 -9.75 8.0625 -9.125 5.0625 C-6.50620524 1.2161452 -4.62486834 -0.35838463 0 0 Z " fill="#0D0D0D" transform="translate(1113.125,770.9375)"/>
<path d="M0 0 C2.66589042 0.54323805 3.75768995 0.96351964 5.875 2.75 C7.21538506 5.84964046 7.42167869 7.71409302 6.875 11.0625 C4.41905875 14.38524404 2.9493356 15.83868008 -1.125 16.6875 C-5.1993356 15.83868008 -6.66905875 14.38524404 -9.125 11.0625 C-9.75 8.0625 -9.75 8.0625 -9.125 5.0625 C-6.50620524 1.2161452 -4.62486834 -0.35838463 0 0 Z " fill="#0D0D0D" transform="translate(1086.125,770.9375)"/>
<path d="M0 0 C2.625 0.375 2.625 0.375 5 1 C5.6875 2.8125 5.6875 2.8125 6 5 C4.8125 6.8125 4.8125 6.8125 3 8 C0.8125 7.6875 0.8125 7.6875 -1 7 C-1.625 4.625 -1.625 4.625 -2 2 C-1.34 1.34 -0.68 0.68 0 0 Z " fill="#DDDDDD" transform="translate(1110,775)"/>
<path d="M0 0 C2.625 0.375 2.625 0.375 5 1 C5.6875 2.8125 5.6875 2.8125 6 5 C4.8125 6.8125 4.8125 6.8125 3 8 C0.8125 7.6875 0.8125 7.6875 -1 7 C-1.625 4.625 -1.625 4.625 -2 2 C-1.34 1.34 -0.68 0.68 0 0 Z " fill="#DCDCDC" transform="translate(1083,775)"/>
</svg>
